<svg width="888" height="461" viewBox="0 0 888 461" fill="none" xmlns="http://www.w3.org/2000/svg">
<g id="undraw_factory_dy0a (1) 1">
<g clip-path="url(#clip0)">
<g id="cloud-0">
<path id="Vector" d="M382.337 122.242C386.098 122.238 389.733 123.592 392.574 126.056C394.818 125.443 397.171 125.34 399.461 125.754C401.356 123.003 404.082 120.93 407.239 119.839C410.396 118.747 413.82 118.694 417.009 119.687C420.199 120.68 422.988 122.666 424.968 125.357C426.948 128.047 428.016 131.3 428.016 134.641H367.019C367.767 131.133 369.696 127.987 372.484 125.731C375.272 123.474 378.75 122.243 382.337 122.242Z" fill="#E2E2E2"/>
<path id="Vector_2" d="M290.572 171.59C294.127 171.586 297.564 172.867 300.249 175.196C302.371 174.617 304.596 174.519 306.76 174.91C308.552 172.31 311.129 170.35 314.114 169.318C317.099 168.286 320.335 168.236 323.351 169.174C326.366 170.113 329.003 171.991 330.875 174.535C332.747 177.078 333.756 180.154 333.756 183.312H276.09C276.797 179.995 278.62 177.022 281.256 174.888C283.892 172.755 287.18 171.591 290.572 171.59Z" fill="#E2E2E2"/>
<path id="Vector_3" d="M198.824 90.1982C202.523 90.194 206.099 91.5263 208.893 93.95C211.101 93.347 213.416 93.2453 215.668 93.6523C217.533 90.9466 220.213 88.9079 223.319 87.8343C226.425 86.7606 229.792 86.7082 232.93 87.6847C236.067 88.6611 238.81 90.6153 240.758 93.2617C242.706 95.9081 243.756 99.1081 243.756 102.394H183.756C184.492 98.9433 186.39 95.8496 189.132 93.6298C191.875 91.41 195.296 90.1987 198.824 90.1982Z" fill="#E2E2E2"/>
</g>
<g id="cloud-1">
<path id="Vector_4" d="M519.111 63.9548C519.108 64.0808 519.101 64.2057 519.101 64.3323C519.099 66.6523 519.563 68.9489 520.467 71.0857C521.37 73.2224 522.695 75.1555 524.361 76.7698C524.621 77.3248 524.911 77.8657 525.228 78.3901C524.023 82.0145 523.418 85.8118 523.438 89.6315C523.438 102.805 530.234 113.485 538.618 113.485C547.001 113.485 553.797 102.805 553.797 89.6315C553.803 86.7778 553.471 83.9335 552.808 81.158C555.411 78.3413 557.006 74.7407 557.344 70.9203C557.682 67.0998 556.743 63.2752 554.675 60.0454C556.404 61.5568 558.417 62.7096 560.596 63.4368C562.775 64.1641 565.076 64.4513 567.367 64.2818C569.658 64.1124 571.892 63.4896 573.94 62.4497C575.989 61.4098 577.81 59.9734 579.298 58.2239C580.787 56.4745 581.913 54.4468 582.612 52.2585C583.31 50.0703 583.567 47.7651 583.368 45.4768C583.168 43.1884 582.516 40.9625 581.449 38.9282C580.382 36.8939 578.922 35.0917 577.153 33.6263C580.128 32.5286 582.745 30.6368 584.72 28.1564C586.695 25.676 587.952 22.7018 588.355 19.557C588.759 16.4122 588.293 13.2169 587.008 10.3184C585.723 7.41984 583.668 4.92882 581.067 3.11592C578.466 1.30303 575.418 0.237592 572.253 0.0353407C569.089 -0.166911 565.93 0.501761 563.119 1.96872C560.309 3.43568 557.954 5.64483 556.31 8.35619C554.667 11.0675 553.797 14.1775 553.797 17.348C553.797 17.602 553.806 17.854 553.816 18.1053C551.434 17.3777 548.924 17.1712 546.455 17.4998C543.986 17.8283 541.617 18.6843 539.508 20.0096C537.399 21.3349 535.6 23.0984 534.233 25.1805C532.867 27.2625 531.964 29.6143 531.586 32.0762C529.423 30.789 527.005 29.988 524.501 29.7289C521.997 29.4698 519.467 29.7588 517.085 30.5758C514.704 31.3928 512.529 32.7182 510.712 34.4601C508.894 36.202 507.478 38.3185 506.56 40.6628C505.643 43.0071 505.247 45.523 505.399 48.0358C505.551 50.5486 506.249 52.9981 507.443 55.2143C508.637 57.4305 510.299 59.3602 512.314 60.8696C514.329 62.3789 516.648 63.4317 519.111 63.9548ZM548.737 52.0441C548.987 52.0441 549.236 52.0357 549.484 52.0252C549.639 52.538 549.818 53.0399 550.02 53.5312C549.606 53.0101 549.163 52.5132 548.692 52.043L548.737 52.0441Z" fill="#E2E2E2"/>
</g>
<g id="cloud-2">
<path id="Vector_5" d="M725.841 63.9548C725.838 64.0808 725.832 64.2057 725.832 64.3323C725.829 66.6523 726.294 68.9489 727.197 71.0857C728.101 73.2224 729.425 75.1555 731.092 76.7698C731.352 77.3248 731.641 77.8657 731.959 78.3901C730.753 82.0145 730.149 85.8118 730.169 89.6315C730.169 102.805 736.965 113.485 745.348 113.485C753.732 113.485 760.528 102.805 760.528 89.6315C760.534 86.7778 760.202 83.9335 759.539 81.158C762.142 78.3413 763.737 74.7407 764.075 70.9203C764.412 67.0998 763.474 63.2752 761.405 60.0454C763.135 61.5569 765.148 62.7097 767.327 63.4369C769.506 64.1642 771.807 64.4515 774.098 64.282C776.389 64.1126 778.623 63.4898 780.671 62.4499C782.719 61.4099 784.541 59.9736 786.029 58.2241C787.518 56.4746 788.644 54.4469 789.343 52.2586C790.041 50.0704 790.298 47.7652 790.098 45.4768C789.899 43.1884 789.247 40.9625 788.18 38.9282C787.113 36.8939 785.653 35.0917 783.884 33.6263C786.859 32.5286 789.475 30.6368 791.45 28.1564C793.425 25.676 794.683 22.7018 795.086 19.557C795.49 16.4122 795.023 13.2169 793.738 10.3184C792.454 7.41984 790.399 4.92882 787.798 3.11592C785.197 1.30303 782.148 0.237593 778.984 0.0353408C775.82 -0.166911 772.661 0.501761 769.85 1.96872C767.039 3.43568 764.684 5.64483 763.041 8.35619C761.397 11.0675 760.528 14.1774 760.528 17.348C760.528 17.602 760.536 17.854 760.547 18.1053C758.165 17.3777 755.654 17.1712 753.185 17.4998C750.717 17.8283 748.347 18.6843 746.239 20.0096C744.13 21.3349 742.331 23.0984 740.964 25.1805C739.597 27.2625 738.694 29.6143 738.317 32.0762C736.153 30.789 733.736 29.988 731.232 29.7289C728.728 29.4698 726.197 29.7588 723.816 30.5758C721.435 31.3928 719.26 32.7182 717.443 34.4601C715.625 36.202 714.208 38.3185 713.291 40.6628C712.374 43.0071 711.977 45.523 712.13 48.0358C712.282 50.5486 712.98 52.9981 714.174 55.2143C715.368 57.4305 717.03 59.3602 719.045 60.8696C721.06 62.3789 723.379 63.4317 725.841 63.9548ZM755.468 52.0441C755.718 52.0441 755.967 52.0357 756.214 52.0252C756.37 52.5379 756.549 53.0399 756.75 53.5312C756.337 53.0101 755.894 52.5132 755.423 52.043L755.468 52.0441Z" fill="#E2E2E2"/>
</g>
<g id="building">
<path id="Vector_6" d="M213.701 452.706L191.827 417.992L213.711 456.488L213.723 460.443C215.284 460.425 216.828 460.365 218.358 460.264L216.573 409.452L216.597 409.059L216.557 408.984L216.387 404.182L239.258 366.136L216.363 400.587L216.295 401.604L214.947 363.213L234.609 323.849L214.793 356.467L213.871 276.894L213.867 276.63L213.864 276.89L213.415 339.628L194.627 314.526L213.432 345.032L213.519 379.394L196.086 346.207L213.529 384.445L213.577 403.552L188.254 357.344L213.597 410.218L213.701 452.706Z" fill="#E2E2E2"/>
<path id="Vector_7" d="M401.413 452.706L379.538 417.992L401.423 456.488L401.435 460.443C402.995 460.425 404.54 460.365 406.069 460.264L404.285 409.452L404.308 409.059L404.268 408.984L404.098 404.182L426.97 366.136L404.075 400.587L404.006 401.604L402.659 363.213L422.321 323.849L402.505 356.467L401.583 276.894L401.579 276.63L401.576 276.89L401.127 339.628L382.338 314.526L401.143 345.032L401.231 379.394L383.798 346.207L401.24 384.446L401.289 403.553L375.966 357.344L401.308 410.218L401.413 452.706Z" fill="#E2E2E2"/>
<path id="Vector_8" d="M25.8113 454.939L10.0159 429.872L25.8187 457.669L25.8271 460.526C26.954 460.512 28.0695 460.469 29.1736 460.396L27.8853 423.705L27.9022 423.421L27.8732 423.367L27.7505 419.9L44.266 392.427L27.7335 417.304L27.684 418.038L26.7108 390.316L40.9089 361.892L26.5999 385.445L25.9343 327.986L25.9312 327.795L25.9289 327.983L25.6048 373.286L12.0379 355.159L25.6169 377.188L25.6799 402L13.0916 378.036L25.6868 405.648L25.7216 419.445L7.43604 386.078L25.736 424.258L25.8113 454.939Z" fill="#E2E2E2"/>
<path id="Vector_9" d="M857.945 452.706L836.071 417.992L857.955 456.488L857.967 460.443C859.527 460.425 861.072 460.365 862.601 460.264L860.817 409.452L860.841 409.059L860.8 408.984L860.631 404.182L883.502 366.136L860.607 400.587L860.538 401.604L859.191 363.213L878.853 323.849L859.037 356.467L858.115 276.894L858.111 276.63L858.108 276.89L857.659 339.628L838.871 314.526L857.676 345.032L857.763 379.394L840.33 346.207L857.772 384.445L857.821 403.552L832.498 357.344L857.841 410.218L857.945 452.706Z" fill="#E2E2E2"/>
<g id="building-cloud">
<path id="Vector_10" d="M594.999 245.186V370.091H643.573V243.451L632.297 243.853V218.296H624.118L622.771 161.692C626.071 159.542 628.394 154.434 628.394 148.47C628.397 146.758 628.198 145.052 627.8 143.386C629.362 141.696 630.319 139.536 630.522 137.244C630.725 134.951 630.161 132.656 628.92 130.719C629.958 131.625 631.166 132.317 632.473 132.754C633.78 133.19 635.161 133.362 636.536 133.261C637.91 133.159 639.251 132.786 640.48 132.162C641.709 131.538 642.802 130.676 643.695 129.626C644.588 128.576 645.264 127.36 645.683 126.047C646.102 124.734 646.256 123.351 646.136 121.977C646.017 120.604 645.625 119.269 644.985 118.048C644.345 116.828 643.469 115.746 642.407 114.867C644.192 114.208 645.762 113.073 646.947 111.585C648.132 110.097 648.887 108.312 649.129 106.426C649.371 104.539 649.091 102.622 648.32 100.882C647.549 99.1434 646.316 97.6487 644.756 96.561C643.195 95.4733 641.366 94.834 639.468 94.7126C637.569 94.5913 635.674 94.9925 633.987 95.8726C632.301 96.7528 630.888 98.0782 629.902 99.705C628.915 101.332 628.394 103.198 628.394 105.1C628.394 105.253 628.399 105.404 628.405 105.554C626.976 105.118 625.469 104.994 623.988 105.191C622.507 105.388 621.085 105.902 619.82 106.697C618.555 107.492 617.475 108.55 616.655 109.8C615.835 111.049 615.294 112.46 615.067 113.937C613.769 113.165 612.318 112.684 610.816 112.529C609.314 112.373 607.795 112.547 606.367 113.037C604.938 113.527 603.633 114.322 602.543 115.367C601.452 116.413 600.602 117.683 600.052 119.089C599.501 120.496 599.264 122.005 599.355 123.513C599.446 125.02 599.865 126.49 600.581 127.82C601.298 129.15 602.295 130.307 603.504 131.213C604.713 132.119 606.104 132.75 607.582 133.064C607.58 133.14 607.576 133.215 607.576 133.291C608.543 136.208 609.773 139.031 611.252 141.725C610.529 143.9 610.166 146.178 610.178 148.47C610.178 154.434 612.501 159.542 615.801 161.692L614.453 218.296H606.275V244.783L594.999 245.186ZM625.331 125.917L625.358 125.918C625.508 125.918 625.657 125.913 625.805 125.906C625.899 126.214 626.006 126.515 626.127 126.81C625.879 126.497 625.613 126.199 625.331 125.917Z" fill="#E2E2E2"/>
</g>
<path id="Vector_11" d="M568.254 459H715.712V288.411H568.254V459Z" fill="#3F3D56"/>
<path id="Vector_12" d="M622.105 459H661.861V424.304H622.105V459Z" fill="#E2E2E2"/>
<path id="Vector_13" d="M529.941 232.03H547.291L546.672 206.01V206L544.401 110.59C542.659 111.654 540.657 112.218 538.616 112.218C536.575 112.218 534.573 111.654 532.831 110.59L530.561 206V206.01L529.941 232.03Z" fill="#6C63FF"/>
<path id="Vector_14" d="M498.141 250.82V459H579.092V247.93L560.301 248.6V206.01H516.931V250.15L498.141 250.82Z" fill="#6C63FF"/>
<path id="Vector_15" d="M736.674 232.03H754.022L751.131 110.594C747.393 111.937 743.304 111.937 739.566 110.594L736.674 232.03Z" fill="#6C63FF"/>
<path id="Vector_16" d="M704.871 250.82V459H785.831V247.93L779.181 248.17L767.031 248.6V206.01H723.661V250.15L704.871 250.82Z" fill="#6C63FF"/>
<path id="Vector_17" d="M663.983 329H683.983V309H663.983V329Z" fill="white"/>
<path id="Vector_18" d="M631.983 329H651.983V309H631.983V329Z" fill="white"/>
<path id="Vector_19" d="M599.983 329H619.983V309H599.983V329Z" fill="white"/>
<path id="Vector_20" d="M663.983 361H683.983V341H663.983V361Z" fill="white"/>
<path id="Vector_21" d="M631.983 361H651.983V341H631.983V361Z" fill="white"/>
<path id="Vector_22" d="M599.983 361H619.983V341H599.983V361Z" fill="white"/>
<path id="Vector_23" d="M663.983 393H683.983V373H663.983V393Z" fill="white"/>
<path id="Vector_24" d="M631.983 393H651.983V373H631.983V393Z" fill="white"/>
<path id="Vector_25" d="M599.983 393H619.983V373H599.983V393Z" fill="white"/>
<path id="Vector_26" d="M528.618 321H548.618V301H528.618V321Z" fill="white"/>
<path id="Vector_27" d="M528.618 353H548.618V333H528.618V353Z" fill="white"/>
<path id="Vector_28" d="M528.618 385H548.618V365H528.618V385Z" fill="white"/>
<path id="Vector_29" d="M528.618 417H548.618V397H528.618V417Z" fill="white"/>
<path id="Vector_30" d="M735.181 321H755.181V301H735.181V321Z" fill="white"/>
<path id="Vector_31" d="M735.181 353H755.181V333H735.181V353Z" fill="white"/>
<path id="Vector_32" d="M735.181 385H755.181V365H735.181V385Z" fill="white"/>
<path id="Vector_33" d="M735.181 417H755.181V397H735.181V417Z" fill="white"/>
<path id="Vector_34" d="M888 458.295H0V460.295H888V458.295Z" fill="#3F3D56"/>
</g>
<g id="car">
<path id="Vector_35" d="M264.714 400.295H382.714V395.295H264.714V400.295Z" fill="#6C63FF"/>
<path id="Vector_36" d="M258.714 395.295H376.714V390.295H258.714V395.295Z" fill="#6C63FF"/>
<path id="Vector_37" d="M277.714 385.295H395.714V380.295H277.714V385.295Z" fill="#6C63FF"/>
<path id="Vector_38" d="M177.313 387.289H181.41V358.2H177.313V387.289Z" fill="#3F3D56"/>
<path id="Vector_39" d="M177.304 357.831L178.845 361.627L330.454 300.092L328.913 296.295L177.304 357.831Z" fill="#3F3D56"/>
<path id="Vector_40" d="M104.797 444.646H280.557V429.078H104.797V444.646Z" fill="#3F3D56"/>
<path id="Vector_41" d="M174.65 430.921H298.378V427.234H174.65V430.921Z" fill="#3F3D56"/>
<path id="Vector_42" d="M133.68 436.862H175.879V383.806H144.332L133.68 410.565V436.862Z" fill="#E2E2E2"/>
<path id="Vector_43" d="M101.39 415.494L101.581 415.567C102.547 415.932 103.328 416.666 103.752 417.607C104.177 418.548 104.21 419.619 103.845 420.584C103.48 421.55 102.746 422.331 101.805 422.755C100.864 423.18 99.7929 423.213 98.8274 422.848L98.6358 422.775L101.39 415.494Z" fill="#3F3D56"/>
<path id="Vector_44" d="M265.714 390.295H383.714V385.295H265.714V390.295Z" fill="#6C63FF"/>
<path id="Vector_45" d="M298.174 436.862H297.969C296.937 436.862 295.947 436.452 295.217 435.722C294.487 434.992 294.077 434.002 294.077 432.97C294.077 431.938 294.487 430.948 295.217 430.218C295.947 429.488 296.937 429.078 297.969 429.078H298.174V436.862V436.862Z" fill="#3F3D56"/>
<path id="Vector_46" d="M101.519 430.717H137.163V416.787H101.519V430.717Z" fill="#3F3D56"/>
<path id="Vector_47" d="M151.297 405.11H169.324V387.084H151.297V405.11Z" fill="white"/>
<path id="Vector_48" d="M137.777 405.315H149.249V387.289H144.332L137.777 405.315Z" fill="white"/>
<path id="Vector_49" d="M164.408 423.137H168.505V415.353H164.408V423.137Z" fill="#3F3D56"/>
<path id="Vector_50" d="M145.766 406.544H145.561C144.529 406.544 143.539 406.134 142.809 405.404C142.079 404.674 141.669 403.685 141.669 402.652C141.669 401.62 142.079 400.63 142.809 399.9C143.539 399.17 144.529 398.76 145.561 398.76H145.766V406.544Z" fill="#3F3D56"/>
<path id="Vector_51" d="M117.292 429.019C114.246 429.058 111.247 429.783 108.519 431.141C105.791 432.499 103.405 434.455 101.537 436.862H93.5299L101.314 415.178L137.572 408.027L136.548 436.862H133.048C131.18 434.454 128.794 432.499 126.066 431.141C123.338 429.783 120.339 429.058 117.292 429.019Z" fill="#E2E2E2"/>
<g id="wheel-1">
<path id="Vector_52" d="M116.883 459.805C126.725 459.805 134.704 451.826 134.704 441.983C134.704 432.14 126.725 424.161 116.883 424.161C107.04 424.161 99.0609 432.14 99.0609 441.983C99.0609 451.826 107.04 459.805 116.883 459.805Z" fill="#3F3D56"/>
<path id="Vector_53" d="M116.883 451.363C122.063 451.363 126.263 447.164 126.263 441.983C126.263 436.803 122.063 432.603 116.883 432.603C111.702 432.603 107.503 436.803 107.503 441.983C107.503 447.164 111.702 451.363 116.883 451.363Z" fill="#E2E2E2"/>
</g>
<g id="wheel-2">
<path id="Vector_54" d="M277.894 459.6C286.492 459.6 293.462 452.63 293.462 444.032C293.462 435.433 286.492 428.463 277.894 428.463C269.295 428.463 262.325 435.433 262.325 444.032C262.325 452.63 269.295 459.6 277.894 459.6Z" fill="#3F3D56"/>
<path id="Vector_55" d="M277.894 452.226C282.419 452.226 286.088 448.557 286.088 444.032C286.088 439.506 282.419 435.838 277.894 435.838C273.368 435.838 269.7 439.506 269.7 444.032C269.7 448.557 273.368 452.226 277.894 452.226Z" fill="#E2E2E2"/>
</g>
<path id="Vector_56" d="M174.65 438.501H183.254V376.432H174.65V438.501Z" fill="#3F3D56"/>
<path id="Vector_57" d="M143.308 407.773H147.405V406.135H143.308V407.773Z" fill="#3F3D56"/>
<path id="Vector_58" d="M324.394 400.265C324.355 400.222 324.326 400.172 324.308 400.117C324.29 400.062 324.284 400.004 324.29 399.946L329.94 346.514C329.951 346.414 329.998 346.321 330.073 346.253C330.148 346.186 330.245 346.148 330.346 346.147H330.348C330.448 346.147 330.546 346.185 330.621 346.251C330.696 346.318 330.743 346.411 330.755 346.511L336.866 399.832C336.873 399.889 336.867 399.947 336.85 400.001C336.833 400.056 336.804 400.107 336.766 400.15C336.728 400.193 336.681 400.227 336.629 400.251C336.577 400.275 336.52 400.288 336.463 400.288L324.701 400.399H324.698C324.64 400.399 324.584 400.387 324.532 400.364C324.479 400.341 324.433 400.307 324.394 400.265ZM330.364 350.298L325.153 399.575L336 399.473L330.364 350.298Z" fill="#3F3D56"/>
<path id="Vector_59" d="M328.491 356.152H332.588V296.336H328.491V356.152Z" fill="#3F3D56"/>
<path id="Vector_60" d="M179.361 364.755C182.529 364.755 185.097 362.187 185.097 359.02C185.097 355.852 182.529 353.284 179.361 353.284C176.194 353.284 173.626 355.852 173.626 359.02C173.626 362.187 176.194 364.755 179.361 364.755Z" fill="#3F3D56"/>
<path id="Vector_61" d="M187.714 427.295H305.714V422.295H187.714V427.295Z" fill="#6C63FF"/>
<path id="Vector_62" d="M194.714 422.295H312.714V417.295H194.714V422.295Z" fill="#6C63FF"/>
<path id="Vector_63" d="M189.714 418.295H307.714V413.295H189.714V418.295Z" fill="#6C63FF"/>
<path id="Vector_64" d="M196.714 413.295H314.714V408.295H196.714V413.295Z" fill="#6C63FF"/>
</g>
</g>
</g>
<defs>
<clipPath id="clip0">
<rect width="888" height="460.526" fill="white"/>
</clipPath>
</defs>
</svg>
